<?xml version="1.0" encoding="UTF-8" standalone="no"?>
<!DOCTYPE svg PUBLIC "-//W3C//DTD SVG 1.1//EN" "http://www.w3.org/Graphics/SVG/1.1/DTD/svg11.dtd">
<svg width="100%" height="100%" viewBox="0 0 800 800" version="1.1" xmlns="http://www.w3.org/2000/svg" xmlns:xlink="http://www.w3.org/1999/xlink" xml:space="preserve" xmlns:serif="http://www.serif.com/" style="fill-rule:evenodd;clip-rule:evenodd;stroke-linejoin:round;stroke-miterlimit:2;">
    <g id="Round-flag" serif:id="Round flag" transform="matrix(4.91714,-0.902533,0.902533,4.91714,-181.934,-1.31262)">
        <path id="stripe" d="M91.767,83.522L178.306,83.522C179.416,88.83 180,94.328 180,99.962C180,105.415 179.453,110.742 178.412,115.883L91.767,115.883L91.767,179.543C79.811,178.317 68.633,174.456 58.821,168.549L58.821,115.883L21.588,115.883C20.547,110.742 20,105.415 20,99.962C20,94.328 20.584,88.83 21.694,83.522L58.821,83.522L58.821,31.375C68.632,25.468 79.812,21.606 91.767,20.382L91.767,83.522Z" style="fill:rgb(255,224,102);"/>
        <path id="contour" d="M178.412,115.883C171.019,152.423 138.7,179.962 100,179.962C97.218,179.962 94.47,179.82 91.767,179.543L91.767,115.883L178.412,115.883ZM58.821,115.883L58.821,168.549C39.923,157.171 26.101,138.205 21.588,115.883L58.821,115.883ZM91.767,20.382C94.47,20.105 97.218,19.962 100,19.962C138.519,19.962 170.717,47.245 178.306,83.522L91.767,83.522L91.767,20.382ZM58.821,83.522L21.694,83.522C26.317,61.426 40.069,42.666 58.821,31.375L58.821,83.522Z" style="fill:rgb(255,204,0);"/>
    </g>
    <g transform="matrix(4.99929,0,0,4.99929,-49.936,-74.7807)">
        <g transform="matrix(0.991797,0.127821,-0.127821,0.991797,40.2944,18.2242)">
            <g transform="matrix(0.805013,-0.593258,0.593258,0.805013,-47.7024,29.4103)">
                <g transform="matrix(45,0,0,45,20.8898,87.2735)">
                    <path d="M0.169,-0.077C0.169,-0.035 0.186,-0.008 0.213,0.013C0.228,0.024 0.237,0.024 0.248,0.004C0.307,-0.103 0.404,-0.238 0.492,-0.351C0.443,-0.251 0.394,-0.146 0.382,-0.099L0.382,-0.1C0.376,-0.078 0.374,-0.059 0.374,-0.043C0.374,-0.014 0.385,0.003 0.397,0.014C0.413,0.028 0.422,0.028 0.429,0.008C0.478,-0.132 0.577,-0.33 0.646,-0.459C0.659,-0.486 0.67,-0.514 0.67,-0.541C0.67,-0.565 0.661,-0.589 0.641,-0.61C0.622,-0.628 0.609,-0.627 0.596,-0.606C0.485,-0.43 0.378,-0.332 0.273,-0.173C0.309,-0.307 0.329,-0.368 0.36,-0.458C0.369,-0.487 0.374,-0.512 0.374,-0.53C0.374,-0.562 0.36,-0.588 0.333,-0.611C0.314,-0.626 0.298,-0.62 0.286,-0.604C0.181,-0.463 0.024,-0.201 -0.017,-0.101C-0.026,-0.079 -0.031,-0.057 -0.031,-0.038C-0.031,-0.016 -0.024,0.001 -0.013,0.012C0,0.025 0.015,0.022 0.021,0.008C0.075,-0.116 0.164,-0.26 0.242,-0.38C0.208,-0.27 0.179,-0.157 0.172,-0.112C0.17,-0.099 0.169,-0.088 0.169,-0.077Z" style="fill:rgb(93,0,255);fill-rule:nonzero;"/>
                </g>
            </g>
            <g transform="matrix(0.939847,-0.341596,0.341596,0.939847,-21.8733,18.5043)">
                <g transform="matrix(45,0,0,45,41.6043,71.3588)">
                    <path d="M0.781,-0.157C0.773,-0.171 0.758,-0.171 0.75,-0.157C0.713,-0.092 0.657,-0.025 0.626,-0.025C0.611,-0.025 0.604,-0.038 0.604,-0.058C0.604,-0.074 0.609,-0.094 0.619,-0.116C0.629,-0.137 0.653,-0.182 0.67,-0.209C0.686,-0.234 0.7,-0.261 0.71,-0.28C0.717,-0.295 0.719,-0.309 0.719,-0.32C0.719,-0.358 0.69,-0.393 0.663,-0.393C0.633,-0.393 0.58,-0.359 0.538,-0.32C0.539,-0.326 0.539,-0.333 0.539,-0.338C0.539,-0.354 0.534,-0.372 0.525,-0.387C0.514,-0.402 0.5,-0.402 0.487,-0.385C0.442,-0.319 0.379,-0.25 0.33,-0.236C0.33,-0.299 0.317,-0.319 0.298,-0.339C0.294,-0.343 0.289,-0.348 0.281,-0.358C0.263,-0.381 0.236,-0.396 0.206,-0.393C0.143,-0.388 0.08,-0.329 0.042,-0.263C0.015,-0.217 0,-0.169 0,-0.124C0,-0.092 0.009,-0.062 0.027,-0.036C0.054,0.001 0.091,0.013 0.123,0.013C0.223,0.013 0.297,-0.102 0.323,-0.2C0.348,-0.2 0.36,-0.2 0.381,-0.21C0.36,-0.169 0.342,-0.126 0.333,-0.1C0.326,-0.081 0.322,-0.062 0.322,-0.048C0.322,-0.025 0.33,-0.008 0.343,0.006C0.359,0.024 0.373,0.014 0.379,0.001C0.418,-0.087 0.468,-0.188 0.519,-0.244C0.575,-0.306 0.619,-0.332 0.628,-0.332C0.631,-0.332 0.611,-0.291 0.603,-0.277C0.58,-0.237 0.547,-0.185 0.529,-0.135C0.52,-0.109 0.516,-0.087 0.516,-0.069C0.516,-0.017 0.546,0.017 0.612,0.017C0.675,0.017 0.749,-0.033 0.776,-0.09C0.792,-0.122 0.787,-0.145 0.781,-0.157ZM0.252,-0.251C0.241,-0.264 0.236,-0.29 0.236,-0.308C0.236,-0.324 0.245,-0.332 0.251,-0.332C0.258,-0.332 0.266,-0.326 0.266,-0.311C0.266,-0.298 0.262,-0.274 0.252,-0.251ZM0.077,-0.081C0.077,-0.119 0.093,-0.175 0.119,-0.22C0.136,-0.248 0.156,-0.276 0.177,-0.297C0.186,-0.269 0.212,-0.236 0.239,-0.219C0.231,-0.198 0.219,-0.169 0.204,-0.141C0.169,-0.074 0.126,-0.038 0.1,-0.037C0.086,-0.037 0.077,-0.052 0.077,-0.081Z" style="fill:rgb(93,0,255);fill-rule:nonzero;"/>
                </g>
            </g>
            <g transform="matrix(0.981477,-0.191578,0.191578,0.981477,-10.2391,15.2005)">
                <g transform="matrix(45,0,0,45,73.4894,60.5516)">
                    <path d="M0.249,-0.341C0.26,-0.332 0.239,-0.285 0.21,-0.246C0.19,-0.219 0.158,-0.189 0.134,-0.189C0.127,-0.189 0.12,-0.191 0.112,-0.196C0.16,-0.292 0.234,-0.353 0.249,-0.341ZM0.324,-0.301C0.324,-0.314 0.32,-0.329 0.314,-0.338C0.3,-0.358 0.28,-0.374 0.252,-0.39C0.242,-0.396 0.231,-0.398 0.217,-0.398C0.159,-0.398 0.078,-0.345 0.026,-0.239C0.005,-0.199 -0.005,-0.16 -0.005,-0.124C-0.005,-0.044 0.046,0.017 0.139,0.016C0.217,0.015 0.297,-0.032 0.339,-0.093C0.357,-0.12 0.356,-0.149 0.353,-0.158C0.345,-0.178 0.332,-0.176 0.321,-0.16C0.28,-0.098 0.213,-0.024 0.137,-0.024C0.107,-0.024 0.089,-0.055 0.089,-0.099C0.089,-0.117 0.092,-0.138 0.098,-0.158C0.121,-0.143 0.145,-0.136 0.169,-0.136C0.257,-0.136 0.324,-0.241 0.324,-0.301Z" style="fill:rgb(93,0,255);fill-rule:nonzero;"/>
                </g>
            </g>
            <g transform="matrix(0.992122,-0.125276,0.125276,0.992122,-6.5507,11.4324)">
                <g transform="matrix(45,0,0,45,87.6231,57.8006)">
                    <path d="M0.402,-0.166C0.398,-0.179 0.383,-0.177 0.37,-0.159C0.338,-0.114 0.286,-0.063 0.225,-0.026C0.266,-0.121 0.318,-0.218 0.347,-0.274C0.36,-0.299 0.365,-0.321 0.365,-0.341C0.365,-0.362 0.361,-0.377 0.346,-0.392C0.335,-0.403 0.322,-0.401 0.308,-0.383C0.284,-0.347 0.257,-0.286 0.19,-0.173C0.141,-0.09 0.096,-0.031 0.07,-0.031C0.044,-0.031 0.053,-0.071 0.067,-0.107C0.086,-0.154 0.107,-0.195 0.141,-0.249C0.164,-0.286 0.176,-0.315 0.176,-0.34C0.176,-0.356 0.167,-0.374 0.157,-0.388C0.146,-0.404 0.131,-0.403 0.118,-0.386C0.056,-0.301 0.007,-0.2 -0.016,-0.137C-0.025,-0.112 -0.029,-0.088 -0.029,-0.067C-0.029,-0.025 -0.007,0.013 0.043,0.013C0.073,0.013 0.099,0.004 0.125,-0.015L0.11,0.02C0.013,0.059 -0.068,0.12 -0.099,0.206C-0.105,0.224 -0.108,0.241 -0.108,0.253C-0.108,0.285 -0.093,0.315 -0.078,0.336C-0.054,0.368 -0.033,0.368 -0.01,0.359C0.077,0.326 0.145,0.166 0.2,0.034C0.282,-0 0.348,-0.037 0.388,-0.098C0.405,-0.124 0.407,-0.15 0.402,-0.166ZM0.084,0.085C0.06,0.139 0.036,0.188 0.015,0.225C-0.013,0.274 -0.034,0.303 -0.041,0.297C-0.051,0.288 -0.044,0.247 -0.019,0.2C0.002,0.161 0.036,0.118 0.084,0.085Z" style="fill:rgb(93,0,255);fill-rule:nonzero;"/>
                </g>
            </g>
        </g>
        <g transform="matrix(0.991797,0.127821,-0.127821,0.991797,47.554,-11.177)">
            <g transform="matrix(0.877047,-0.480405,0.480405,0.877047,-33.9555,23.0974)">
                <g transform="matrix(36,0,0,36,28.1456,77.8845)">
                    <path d="M0.037,-0.051C0.037,-0.026 0.043,-0.01 0.058,0.004C0.072,0.018 0.084,0.017 0.092,-0.001C0.15,-0.132 0.222,-0.265 0.274,-0.359C0.317,-0.434 0.346,-0.492 0.345,-0.528C0.399,-0.537 0.457,-0.546 0.5,-0.541C0.523,-0.539 0.527,-0.551 0.522,-0.563C0.507,-0.605 0.465,-0.617 0.419,-0.617C0.361,-0.617 0.201,-0.59 0.114,-0.59C0.1,-0.59 0.092,-0.584 0.095,-0.571C0.106,-0.532 0.149,-0.509 0.214,-0.509C0.228,-0.509 0.242,-0.511 0.257,-0.513C0.169,-0.377 0.068,-0.174 0.043,-0.091C0.039,-0.078 0.037,-0.063 0.037,-0.051Z" style="fill:rgb(93,0,255);fill-rule:nonzero;"/>
                </g>
            </g>
            <g transform="matrix(0.915313,-0.402743,0.402743,0.915313,-25.8044,21.5023)">
                <g transform="matrix(36,0,0,36,38.2266,72.1098)">
                    <path d="M0.405,-0.092C0.42,-0.122 0.413,-0.145 0.408,-0.157C0.4,-0.174 0.384,-0.172 0.377,-0.157C0.347,-0.096 0.294,-0.025 0.259,-0.025C0.245,-0.025 0.24,-0.038 0.24,-0.059C0.24,-0.075 0.244,-0.096 0.253,-0.118C0.264,-0.142 0.289,-0.184 0.344,-0.282C0.352,-0.296 0.355,-0.31 0.355,-0.324C0.355,-0.363 0.326,-0.394 0.297,-0.394C0.278,-0.394 0.243,-0.382 0.213,-0.36C0.223,-0.374 0.285,-0.467 0.305,-0.5C0.329,-0.542 0.341,-0.579 0.341,-0.606C0.341,-0.62 0.338,-0.633 0.333,-0.644C0.324,-0.664 0.309,-0.668 0.293,-0.648C0.212,-0.544 0.014,-0.209 -0.026,-0.104C-0.051,-0.038 -0.037,-0.014 -0.021,0.005C-0.009,0.02 0.006,0.017 0.014,-0.001C0.038,-0.061 0.074,-0.13 0.108,-0.186C0.161,-0.272 0.256,-0.335 0.265,-0.335C0.272,-0.335 0.257,-0.311 0.238,-0.278C0.2,-0.219 0.151,-0.132 0.151,-0.069C0.151,-0.017 0.181,0.016 0.247,0.016C0.311,0.016 0.376,-0.034 0.405,-0.092Z" style="fill:rgb(93,0,255);fill-rule:nonzero;"/>
                </g>
            </g>
            <g transform="matrix(0.958401,-0.285424,0.285424,0.958401,-16.9189,17.2523)">
                <g transform="matrix(36,0,0,36,50.7279,66.6696)">
                    <path d="M0.249,-0.341C0.26,-0.332 0.239,-0.285 0.21,-0.246C0.19,-0.219 0.158,-0.189 0.134,-0.189C0.127,-0.189 0.12,-0.191 0.112,-0.196C0.16,-0.292 0.234,-0.353 0.249,-0.341ZM0.324,-0.301C0.324,-0.314 0.32,-0.329 0.314,-0.338C0.3,-0.358 0.28,-0.374 0.252,-0.39C0.242,-0.396 0.231,-0.398 0.217,-0.398C0.159,-0.398 0.078,-0.345 0.026,-0.239C0.005,-0.199 -0.005,-0.16 -0.005,-0.124C-0.005,-0.044 0.046,0.017 0.139,0.016C0.217,0.015 0.297,-0.032 0.339,-0.093C0.357,-0.12 0.356,-0.149 0.353,-0.158C0.345,-0.178 0.332,-0.176 0.321,-0.16C0.28,-0.098 0.213,-0.024 0.137,-0.024C0.107,-0.024 0.089,-0.055 0.089,-0.099C0.089,-0.117 0.092,-0.138 0.098,-0.158C0.121,-0.143 0.145,-0.136 0.169,-0.136C0.257,-0.136 0.324,-0.241 0.324,-0.301Z" style="fill:rgb(93,0,255);fill-rule:nonzero;"/>
                </g>
            </g>
        </g>
        <g transform="matrix(0.991797,0.127821,-0.127821,0.991797,41.6168,62.9556)">
            <g transform="matrix(0.778907,-0.627139,0.627139,0.778907,-47.8475,27.5503)">
                <g transform="matrix(42,0,0,42,15.1501,81.6358)">
                    <path d="M0.169,-0.077C0.169,-0.035 0.186,-0.008 0.213,0.013C0.228,0.024 0.237,0.024 0.248,0.004C0.307,-0.103 0.404,-0.238 0.492,-0.351C0.443,-0.251 0.394,-0.146 0.382,-0.099L0.382,-0.1C0.376,-0.078 0.374,-0.059 0.374,-0.043C0.374,-0.014 0.385,0.003 0.397,0.014C0.413,0.028 0.422,0.028 0.429,0.008C0.478,-0.132 0.577,-0.33 0.646,-0.459C0.659,-0.486 0.67,-0.514 0.67,-0.541C0.67,-0.565 0.661,-0.589 0.641,-0.61C0.622,-0.628 0.609,-0.627 0.596,-0.606C0.485,-0.43 0.378,-0.332 0.273,-0.173C0.309,-0.307 0.329,-0.368 0.36,-0.458C0.369,-0.487 0.374,-0.512 0.374,-0.53C0.374,-0.562 0.36,-0.588 0.333,-0.611C0.314,-0.626 0.298,-0.62 0.286,-0.604C0.181,-0.463 0.024,-0.201 -0.017,-0.101C-0.026,-0.079 -0.031,-0.057 -0.031,-0.038C-0.031,-0.016 -0.024,0.001 -0.013,0.012C0,0.025 0.015,0.022 0.021,0.008C0.075,-0.116 0.164,-0.26 0.242,-0.38C0.208,-0.27 0.179,-0.157 0.172,-0.112C0.17,-0.099 0.169,-0.088 0.169,-0.077Z" style="fill:rgb(93,0,255);fill-rule:nonzero;"/>
                </g>
            </g>
            <g transform="matrix(0.887621,-0.460574,0.460574,0.887621,-27.0912,23.023)">
                <g transform="matrix(42,0,0,42,33.6334,67.0269)">
                    <path d="M0.046,-0.237C0.01,-0.187 -0.008,-0.131 -0.008,-0.088C-0.008,-0.029 0.024,0.014 0.083,0.014C0.123,0.014 0.168,-0.017 0.197,-0.045C0.205,-0.008 0.234,0.018 0.284,0.018C0.345,0.018 0.409,-0.035 0.435,-0.09C0.449,-0.119 0.443,-0.146 0.439,-0.155C0.429,-0.176 0.42,-0.175 0.409,-0.155C0.376,-0.09 0.326,-0.022 0.29,-0.022C0.28,-0.022 0.276,-0.031 0.276,-0.046C0.276,-0.113 0.36,-0.222 0.386,-0.277C0.412,-0.329 0.403,-0.373 0.386,-0.393C0.374,-0.407 0.357,-0.406 0.345,-0.386L0.326,-0.355C0.317,-0.381 0.295,-0.399 0.259,-0.399C0.208,-0.399 0.126,-0.352 0.046,-0.237ZM0.096,-0.03C0.086,-0.03 0.082,-0.042 0.082,-0.06C0.082,-0.092 0.099,-0.145 0.129,-0.192C0.18,-0.274 0.249,-0.337 0.269,-0.337C0.279,-0.337 0.281,-0.33 0.281,-0.318C0.281,-0.292 0.263,-0.243 0.224,-0.175C0.175,-0.091 0.129,-0.03 0.096,-0.03Z" style="fill:rgb(93,0,255);fill-rule:nonzero;"/>
                </g>
            </g>
            <g transform="matrix(0.937423,-0.348194,0.348194,0.937423,-17.5429,20.7153)">
                <g transform="matrix(42,0,0,42,48.8606,59.1638)">
                    <path d="M0.316,-0.604C0.316,-0.618 0.312,-0.631 0.306,-0.643C0.295,-0.664 0.279,-0.664 0.263,-0.644C0.175,-0.523 0.031,-0.241 -0.014,-0.113C-0.024,-0.084 -0.027,-0.062 -0.027,-0.046C-0.027,-0.025 -0.021,-0.011 -0.011,-0C0.001,0.015 0.017,0.01 0.024,-0.004C0.056,-0.079 0.083,-0.14 0.11,-0.188C0.11,-0.048 0.17,0.01 0.244,0.011C0.329,0.012 0.38,-0.06 0.399,-0.095C0.414,-0.121 0.416,-0.146 0.411,-0.159C0.402,-0.184 0.389,-0.182 0.377,-0.158C0.349,-0.1 0.294,-0.03 0.26,-0.03C0.23,-0.03 0.206,-0.085 0.202,-0.16C0.261,-0.18 0.302,-0.208 0.334,-0.239C0.359,-0.263 0.369,-0.288 0.369,-0.312C0.369,-0.329 0.365,-0.345 0.357,-0.36C0.335,-0.406 0.308,-0.422 0.263,-0.406C0.246,-0.4 0.229,-0.393 0.211,-0.38C0.271,-0.489 0.316,-0.565 0.316,-0.604ZM0.302,-0.357C0.311,-0.344 0.293,-0.311 0.253,-0.278C0.22,-0.251 0.15,-0.22 0.121,-0.21C0.151,-0.26 0.179,-0.296 0.213,-0.322C0.259,-0.357 0.294,-0.369 0.302,-0.357Z" style="fill:rgb(93,0,255);fill-rule:nonzero;"/>
                </g>
            </g>
            <g transform="matrix(0.973567,-0.228401,0.228401,0.973567,-10.5389,15.8386)">
                <g transform="matrix(42,0,0,42,63.1595,53.4517)">
                    <path d="M0.123,-0.216C0.164,-0.297 0.232,-0.355 0.25,-0.341C0.26,-0.333 0.237,-0.284 0.209,-0.248C0.189,-0.221 0.162,-0.192 0.136,-0.192C0.129,-0.192 0.122,-0.194 0.114,-0.198C0.116,-0.203 0.118,-0.207 0.123,-0.216ZM0.681,-0.157C0.671,-0.179 0.656,-0.175 0.647,-0.156C0.617,-0.086 0.56,-0.025 0.524,-0.025C0.51,-0.025 0.502,-0.042 0.502,-0.068C0.502,-0.08 0.505,-0.098 0.509,-0.111C0.527,-0.162 0.576,-0.23 0.619,-0.28C0.631,-0.293 0.636,-0.306 0.636,-0.318C0.636,-0.343 0.619,-0.37 0.606,-0.387C0.594,-0.403 0.58,-0.396 0.564,-0.386C0.531,-0.365 0.505,-0.351 0.477,-0.344C0.488,-0.377 0.496,-0.407 0.496,-0.428C0.496,-0.45 0.488,-0.463 0.467,-0.463C0.433,-0.462 0.366,-0.389 0.366,-0.336C0.366,-0.318 0.376,-0.303 0.394,-0.292C0.341,-0.17 0.237,-0.026 0.137,-0.026C0.109,-0.026 0.091,-0.056 0.091,-0.102C0.091,-0.12 0.094,-0.141 0.1,-0.161C0.123,-0.145 0.147,-0.139 0.171,-0.139C0.215,-0.139 0.253,-0.164 0.282,-0.2C0.309,-0.235 0.324,-0.276 0.324,-0.305C0.324,-0.317 0.32,-0.329 0.315,-0.338C0.299,-0.358 0.28,-0.373 0.253,-0.39C0.243,-0.396 0.232,-0.398 0.219,-0.398C0.162,-0.398 0.08,-0.342 0.028,-0.24C0.008,-0.2 -0.002,-0.16 -0.002,-0.125C-0.002,-0.046 0.049,0.014 0.141,0.013C0.263,0.011 0.37,-0.111 0.452,-0.282C0.474,-0.283 0.499,-0.287 0.526,-0.299C0.486,-0.252 0.447,-0.197 0.43,-0.143C0.423,-0.122 0.42,-0.104 0.42,-0.088C0.42,-0.029 0.455,0.015 0.518,0.015C0.577,0.015 0.651,-0.028 0.676,-0.09C0.689,-0.118 0.686,-0.146 0.681,-0.157Z" style="fill:rgb(93,0,255);fill-rule:nonzero;"/>
                </g>
            </g>
            <g transform="matrix(0.989816,-0.142353,0.142353,0.989816,-5.84824,13.271)">
                <g transform="matrix(42,0,0,42,89.827,47.5089)">
                    <path d="M0.115,-0.031C0.093,-0.031 0.072,-0.066 0.06,-0.113C0.09,-0.156 0.118,-0.199 0.142,-0.237C0.144,-0.21 0.145,-0.178 0.145,-0.146C0.145,-0.081 0.136,-0.031 0.115,-0.031ZM-0.022,-0.127C-0.022,-0.104 -0.016,-0.08 -0.005,-0.061C0.029,0.002 0.089,0.018 0.149,0.016C0.224,0.013 0.294,-0.025 0.332,-0.095C0.35,-0.126 0.347,-0.154 0.342,-0.164C0.335,-0.18 0.32,-0.187 0.311,-0.164C0.293,-0.115 0.265,-0.082 0.224,-0.054C0.235,-0.076 0.24,-0.104 0.241,-0.129C0.243,-0.183 0.23,-0.248 0.23,-0.319C0.23,-0.332 0.231,-0.349 0.232,-0.361C0.263,-0.412 0.257,-0.434 0.23,-0.434C0.215,-0.434 0.197,-0.427 0.181,-0.413C0.158,-0.394 0.146,-0.371 0.142,-0.335C0.116,-0.292 0.081,-0.24 0.048,-0.193C0.045,-0.217 0.03,-0.222 0.01,-0.205C-0.012,-0.186 -0.022,-0.157 -0.022,-0.127Z" style="fill:rgb(93,0,255);fill-rule:nonzero;"/>
                </g>
            </g>
        </g>
    </g>
</svg>
